<?xml version="1.0" standalone="no"?>
<!DOCTYPE svg PUBLIC "-//W3C//DTD SVG 20010904//EN"
 "http://www.w3.org/TR/2001/REC-SVG-20010904/DTD/svg10.dtd">
<svg version="1.0" xmlns="http://www.w3.org/2000/svg"
 width="113.000000pt" height="165.000000pt" viewBox="0 0 113.000000 165.000000"
 preserveAspectRatio="xMidYMid meet">
<metadata>
Created by potrace 1.10, written by Peter Selinger 2001-2011
</metadata>
<g transform="translate(0.000000,165.000000) scale(0.100000,-0.100000)"
fill="#ffffff" stroke="none">
<path d="M702 1637 c-8 -10 -6 -13 11 -14 12 0 16 1 9 4 -6 3 -10 9 -6 14 8
14 -2 11 -14 -4z"/>
<path d="M770 1646 c0 -2 7 -7 16 -10 8 -3 12 -2 9 4 -6 10 -25 14 -25 6z"/>
<path d="M750 1611 c0 -6 4 -13 10 -16 6 -3 7 1 4 9 -7 18 -14 21 -14 7z"/>
<path d="M459 1591 c-258 -82 -434 -423 -415 -806 22 -474 317 -802 634 -706
178 54 321 233 389 487 24 89 26 117 26 269 0 152 -2 180 -26 269 -97 364
-353 569 -608 487z m257 -68 c233 -113 373 -477 323 -840 -13 -97 -65 -254
-110 -329 -49 -84 -143 -175 -214 -210 -52 -25 -71 -29 -145 -29 -73 1 -93 5
-140 29 -149 75 -252 221 -306 432 -108 425 71 897 370 975 58 15 161 2 222
-28z m-386 -37 c0 -2 -7 -7 -16 -10 -8 -3 -12 -2 -9 4 6 10 25 14 25 6z m-123
-138 c-3 -8 -6 -5 -6 6 -1 11 2 17 5 13 3 -3 4 -12 1 -19z"/>
<path d="M600 1526 c0 -10 -7 -13 -22 -9 -21 5 -67 6 -95 2 -7 -1 -10 -6 -7
-11 3 -4 0 -8 -7 -8 -7 0 -10 -3 -7 -6 4 -3 18 2 32 11 24 16 31 14 27 -8 -1
-5 3 -6 9 -2 6 3 7 11 4 17 -5 8 -1 9 10 5 10 -4 20 -7 22 -7 3 0 2 -6 -2 -12
-5 -9 -2 -9 9 1 15 12 17 11 17 -12 0 -14 -6 -28 -12 -31 -10 -5 -10 -7 -1
-12 8 -4 11 -21 8 -52 -2 -26 3 -5 13 46 10 55 21 90 26 85 5 -4 6 -3 2 5 -10
17 -26 15 -26 -2z"/>
<path d="M647 1521 c2 -2 -4 -9 -13 -15 -13 -10 -11 -12 11 -11 14 1 30 7 35
13 7 9 7 9 -2 2 -7 -6 -15 -5 -22 3 -6 7 -10 10 -9 8z"/>
<path d="M737 1458 c-15 -8 -18 -39 -4 -38 4 0 10 0 13 0 4 0 3 6 -2 13 -5 7
-1 4 9 -6 9 -11 17 -14 17 -8 0 6 5 11 11 11 5 0 7 -5 3 -12 -4 -6 -3 -8 4 -4
6 3 13 2 17 -4 4 -6 11 -8 16 -4 16 10 -20 42 -40 37 -11 -3 -22 1 -26 8 -5 7
-4 10 3 5 6 -3 13 -3 16 2 7 11 -18 11 -37 0z m74 -35 c13 -16 12 -17 -3 -4
-17 13 -22 21 -14 21 2 0 10 -8 17 -17z"/>
<path d="M349 1433 c-6 -7 -16 -10 -22 -6 -6 3 -7 1 -3 -5 8 -13 36 -5 36 10
0 5 4 7 9 3 5 -3 12 -2 15 3 8 14 -23 10 -35 -5z"/>
<path d="M305 1390 c-3 -5 -3 -15 1 -22 5 -7 2 -9 -8 -6 -8 4 -15 0 -15 -8 0
-22 30 1 32 25 2 23 -1 26 -10 11z"/>
<path d="M815 1390 c-16 -7 -17 -9 -3 -9 9 -1 20 4 23 9 7 11 7 11 -20 0z"/>
<path d="M842 1374 c-11 -12 -10 -15 5 -21 10 -3 21 -7 24 -9 3 -2 6 3 6 10 0
8 -6 12 -14 9 -9 -4 -11 0 -7 11 8 20 3 20 -14 0z"/>
<path d="M806 1355 c4 -8 8 -15 10 -15 2 0 4 7 4 15 0 8 -4 15 -10 15 -5 0 -7
-7 -4 -15z"/>
<path d="M475 1295 c-169 -170 -194 -673 -45 -932 41 -72 89 -107 135 -99 34
7 35 8 35 57 0 33 -4 48 -11 43 -6 -3 -8 -17 -5 -30 5 -20 3 -24 -17 -24 -13
0 -28 -5 -34 -11 -8 -8 -13 -8 -18 0 -3 6 -3 11 2 10 23 -4 25 3 5 17 -12 8
-35 38 -51 65 -15 27 -30 47 -32 45 -2 -2 -4 5 -5 17 -1 12 -11 58 -23 102
-77 279 1 669 147 740 23 11 42 23 42 27 0 5 -20 8 -45 8 -37 0 -50 -5 -80
-35z m1 -43 c-17 -16 -18 -16 -5 5 7 12 15 20 18 17 3 -2 -3 -12 -13 -22z
m-79 -177 c0 -8 -4 -12 -9 -9 -5 3 -6 10 -3 15 9 13 12 11 12 -6z"/>
<path d="M410 1309 c0 -5 5 -7 10 -4 6 3 10 8 10 11 0 2 -4 4 -10 4 -5 0 -10
-5 -10 -11z"/>
<path d="M882 1301 c2 -7 7 -12 11 -12 12 1 9 15 -3 20 -7 2 -11 -2 -8 -8z"/>
<path d="M425 1290 c-4 -6 -10 -8 -14 -6 -4 3 -8 -1 -8 -8 0 -17 23 -10 31 10
6 16 0 19 -9 4z"/>
<path d="M587 1293 c-5 -7 -6 -17 -3 -22 4 -5 0 -12 -6 -14 -9 -4 -9 -6 1 -6
11 -1 10 -5 -5 -17 -10 -8 -14 -13 -8 -10 7 3 14 -1 17 -9 4 -8 -2 -16 -14
-20 -75 -24 -120 -319 -88 -575 20 -163 56 -244 107 -238 60 7 99 127 109 337
10 210 -21 406 -72 457 -18 18 -25 37 -27 76 -2 32 -6 48 -11 41z m40 -253
c14 -58 18 -117 18 -255 0 -179 -9 -247 -41 -323 -14 -35 -16 -36 -29 -18 -33
44 -50 165 -49 351 0 176 10 251 44 340 l12 30 13 -25 c8 -14 22 -59 32 -100z
m-9 95 c-3 -3 -9 2 -12 12 -6 14 -5 15 5 6 7 -7 10 -15 7 -18z m-88 -85 c0 -5
-5 -10 -11 -10 -5 0 -7 5 -4 10 3 6 8 10 11 10 2 0 4 -4 4 -10z m133 -415 c-7
-21 -12 -19 -10 4 0 11 5 18 9 15 4 -3 5 -11 1 -19z m-143 -31 c0 -8 -19 -13
-24 -6 -3 5 1 9 9 9 8 0 15 -2 15 -3z m5 -43 c3 -5 2 -12 -3 -15 -5 -3 -9 1
-9 9 0 17 3 19 12 6z m25 -91 c0 -5 -5 -10 -11 -10 -5 0 -7 5 -4 10 3 6 8 10
11 10 2 0 4 -4 4 -10z m75 -20 c-4 -21 -28 -50 -41 -50 -4 0 3 11 16 25 13 14
20 25 16 25 -4 0 -4 5 -1 10 10 16 14 12 10 -10z m-65 -20 c6 -11 8 -20 6 -20
-3 0 -10 9 -16 20 -6 11 -8 20 -6 20 3 0 10 -9 16 -20z"/>
<path d="M551 992 c-7 -13 -6 -19 2 -19 7 0 13 9 13 19 0 10 -1 18 -3 18 -1 0
-7 -8 -12 -18z"/>
<path d="M551 593 c7 -12 15 -20 18 -17 3 2 -3 12 -13 22 -17 16 -18 16 -5 -5z"/>
<path d="M581 553 c-1 -25 14 -39 25 -22 4 7 3 9 -4 5 -6 -3 -12 3 -15 16 -4
23 -4 23 -6 1z"/>
<path d="M581 484 c0 -11 3 -14 6 -6 3 7 2 16 -1 19 -3 4 -6 -2 -5 -13z"/>
<path d="M886 1258 c3 -5 10 -6 15 -3 13 9 11 12 -6 12 -8 0 -12 -4 -9 -9z"/>
<path d="M205 1240 c-3 -5 -1 -10 4 -10 6 0 11 5 11 10 0 6 -2 10 -4 10 -3 0
-8 -4 -11 -10z"/>
<path d="M519 1224 c-7 -9 -14 -23 -15 -31 -2 -12 0 -12 15 1 10 9 18 23 18
31 0 19 -1 19 -18 -1z"/>
<path d="M225 1219 c-4 -6 -5 -12 -2 -15 2 -3 7 2 10 11 7 17 1 20 -8 4z"/>
<path d="M328 1140 c-3 -17 -2 -33 2 -35 3 -2 7 12 8 31 3 42 -4 45 -10 4z"/>
<path d="M705 1141 c6 -10 4 -13 -7 -9 -8 4 -15 1 -15 -7 0 -8 7 -11 15 -7 9
3 13 1 9 -4 -3 -6 -2 -16 3 -24 6 -10 8 -4 6 18 -1 17 -6 35 -11 39 -4 5 -5 2
0 -6z"/>
<path d="M965 1130 c6 -30 16 -40 12 -12 -2 12 -6 24 -10 28 -3 4 -4 -4 -2
-16z"/>
<path d="M464 1102 c-5 -4 -10 -22 -9 -40 0 -20 -3 -31 -10 -28 -7 2 -12 -2
-12 -10 0 -8 4 -14 8 -14 12 0 23 22 24 50 1 14 5 31 9 38 8 14 6 15 -10 4z"/>
<path d="M145 1091 c-3 -5 -2 -12 3 -15 5 -3 9 1 9 9 0 17 -3 19 -12 6z"/>
<path d="M974 1084 c-18 -14 -18 -15 4 -4 12 6 22 13 22 15 0 8 -5 6 -26 -11z"/>
<path d="M693 1065 c0 -8 6 -16 14 -19 11 -4 11 -1 3 14 -13 24 -17 25 -17 5z"/>
<path d="M984 1053 c2 -10 6 -17 10 -16 15 3 16 11 2 22 -12 10 -14 9 -12 -6z"/>
<path d="M149 1018 c-4 -10 -5 -87 -1 -83 6 5 11 85 5 85 -2 0 -3 -1 -4 -2z"/>
<path d="M144 763 c3 -6 -2 -16 -11 -22 -11 -6 -13 -11 -5 -11 7 0 11 -4 8 -8
-3 -5 1 -9 8 -9 14 0 15 41 2 54 -5 4 -6 3 -2 -4z"/>
<path d="M137 679 c7 -7 15 -10 18 -7 3 3 -2 9 -12 12 -14 6 -15 5 -6 -5z"/>
<path d="M421 674 c0 -11 3 -14 6 -6 3 7 2 16 -1 19 -3 4 -6 -2 -5 -13z"/>
<path d="M987 679 c7 -7 15 -10 18 -7 3 3 -2 9 -12 12 -14 6 -15 5 -6 -5z"/>
<path d="M980 646 c0 -2 7 -7 16 -10 8 -3 12 -2 9 4 -6 10 -25 14 -25 6z"/>
<path d="M143 620 c5 -29 13 -33 13 -5 0 14 -4 25 -8 25 -4 0 -7 -9 -5 -20z"/>
<path d="M425 620 c-3 -6 1 -7 9 -4 18 7 21 14 7 14 -6 0 -13 -4 -16 -10z"/>
<path d="M986 618 c5 -7 2 -9 -8 -6 -8 4 -15 0 -15 -7 0 -10 5 -11 19 -4 16 9
17 29 2 29 -3 0 -2 -5 2 -12z"/>
<path d="M969 573 c-13 -16 -12 -17 4 -4 16 13 21 21 13 21 -2 0 -10 -8 -17
-17z"/>
<path d="M444 499 c-4 -8 -3 -9 4 -5 7 4 12 1 12 -7 0 -8 10 -22 23 -33 22
-19 22 -19 5 2 -10 11 -18 26 -18 32 0 16 -18 24 -26 11z"/>
<path d="M701 497 c-8 -10 -7 -14 2 -14 8 0 14 6 14 14 0 7 -1 13 -2 13 -2 0
-8 -6 -14 -13z"/>
<path d="M325 471 c-7 -24 1 -41 18 -40 9 0 9 2 0 6 -7 2 -13 12 -13 20 0 14
3 13 23 -3 l22 -19 -20 25 c-11 14 -21 26 -21 28 -1 2 -5 -6 -9 -17z"/>
<path d="M692 461 c4 -13 18 -16 19 -4 0 4 -5 9 -11 12 -7 2 -11 -2 -8 -8z"/>
<path d="M225 441 c-3 -5 -2 -12 3 -15 5 -3 9 1 9 9 0 17 -3 19 -12 6z"/>
<path d="M916 434 c-5 -13 -4 -14 7 -6 8 7 18 8 22 4 5 -4 5 -1 1 6 -10 17
-23 15 -30 -4z"/>
<path d="M688 428 c5 -5 16 -8 23 -6 8 3 3 7 -10 11 -17 4 -21 3 -13 -5z"/>
<path d="M486 422 c-3 -5 1 -9 9 -9 8 0 12 4 9 9 -3 4 -7 8 -9 8 -2 0 -6 -4
-9 -8z"/>
<path d="M205 410 c3 -5 8 -10 11 -10 2 0 4 5 4 10 0 6 -5 10 -11 10 -5 0 -7
-4 -4 -10z"/>
<path d="M327 406 c-4 -10 -1 -13 8 -9 8 3 12 9 9 14 -7 12 -11 11 -17 -5z"/>
<path d="M894 412 c4 -7 1 -12 -6 -12 -9 0 -9 -3 2 -10 10 -6 11 -10 3 -10 -7
0 -13 -5 -13 -10 0 -6 8 -5 20 2 11 7 16 14 10 16 -6 2 -8 8 -5 12 3 5 0 12
-6 16 -8 4 -9 3 -5 -4z"/>
<path d="M660 400 c-13 -8 -13 -10 2 -10 9 0 20 5 23 10 8 13 -5 13 -25 0z"/>
<path d="M700 395 c0 -8 2 -15 4 -15 2 0 6 7 10 15 3 8 1 15 -4 15 -6 0 -10
-7 -10 -15z"/>
<path d="M498 393 c7 -3 16 -2 19 1 4 3 -2 6 -13 5 -11 0 -14 -3 -6 -6z"/>
<path d="M260 360 c13 -8 12 -10 -4 -10 -11 0 -17 -3 -13 -6 3 -3 15 -3 28 1
17 6 19 9 8 16 -8 5 -18 9 -24 9 -5 0 -3 -5 5 -10z"/>
<path d="M543 351 c0 -11 5 -18 9 -15 4 3 5 11 1 19 -7 21 -12 19 -10 -4z"/>
<path d="M889 343 c-13 -16 -12 -17 4 -4 16 13 21 21 13 21 -2 0 -10 -8 -17
-17z"/>
<path d="M300 345 c0 -5 5 -17 10 -25 5 -8 10 -10 10 -5 0 6 -5 17 -10 25 -5
8 -10 11 -10 5z"/>
<path d="M407 315 c-4 -8 -3 -16 1 -19 4 -3 9 4 9 15 2 23 -3 25 -10 4z"/>
<path d="M291 304 c-1 -6 5 -17 12 -23 10 -8 14 -7 14 4 0 8 -4 12 -8 9 -4 -2
-10 2 -12 8 -4 8 -6 9 -6 2z"/>
<path d="M627 265 c-4 -8 -3 -16 1 -19 4 -3 9 4 9 15 2 23 -3 25 -10 4z"/>
<path d="M825 270 c-3 -5 -1 -10 4 -10 6 0 11 5 11 10 0 6 -2 10 -4 10 -3 0
-8 -4 -11 -10z"/>
<path d="M606 225 c4 -16 15 -39 25 -51 11 -11 16 -24 12 -27 -3 -4 -1 -7 5
-7 15 0 15 3 0 35 -6 14 -15 25 -20 25 -5 0 -7 4 -4 9 3 4 -1 17 -9 27 -14 18
-15 17 -9 -11z"/>
<path d="M483 226 c0 -11 33 -16 39 -5 2 2 1 3 -1 2 -2 -1 -11 2 -21 7 -12 6
-17 5 -17 -4z"/>
<path d="M415 202 c-10 -10 -5 -21 15 -32 16 -9 19 -8 13 6 -5 13 -3 15 7 9 9
-6 11 -4 5 5 -6 10 -4 12 9 7 9 -4 15 -3 12 2 -6 9 -52 12 -61 3z m25 -6 c0
-3 -4 -8 -10 -11 -5 -3 -10 -1 -10 4 0 6 5 11 10 11 6 0 10 -2 10 -4z"/>
<path d="M672 190 c-7 -11 -8 -20 -3 -20 5 0 12 6 15 13 4 6 4 2 2 -10 -3 -15
0 -20 10 -16 12 4 8 26 -10 50 -1 1 -7 -7 -14 -17z"/>
<path d="M723 195 c0 -8 4 -12 9 -9 5 3 6 10 3 15 -9 13 -12 11 -12 -6z"/>
<path d="M290 1556 c0 -2 7 -7 16 -10 8 -3 12 -2 9 4 -6 10 -25 14 -25 6z"/>
<path d="M249 1544 c-1 -2 -2 -12 -3 -21 -2 -26 -15 -43 -29 -39 -7 1 -9 1 -4
-1 4 -3 4 -10 0 -16 -3 -7 6 -1 20 12 15 13 24 27 22 31 -5 8 18 32 26 27 2
-1 3 0 1 2 -4 6 -32 10 -33 5z"/>
<path d="M943 1473 c4 -3 1 -13 -6 -22 -11 -14 -10 -14 5 -2 16 12 16 31 1 31
-4 0 -3 -3 0 -7z"/>
<path d="M983 1365 c0 -8 4 -12 9 -9 5 3 6 10 3 15 -9 13 -12 11 -12 -6z"/>
<path d="M1090 1246 c0 -2 7 -7 16 -10 8 -3 12 -2 9 4 -6 10 -25 14 -25 6z"/>
<path d="M1070 1211 c0 -5 5 -13 10 -16 6 -3 10 -2 10 4 0 5 -4 13 -10 16 -5
3 -10 2 -10 -4z"/>
<path d="M6 1052 c-3 -5 1 -9 9 -9 8 0 12 4 9 9 -3 4 -7 8 -9 8 -2 0 -6 -4 -9
-8z"/>
<path d="M1101 577 c-8 -10 -7 -14 2 -14 8 0 14 6 14 14 0 7 -1 13 -2 13 -2 0
-8 -6 -14 -13z"/>
<path d="M19 543 c-12 -16 -12 -17 2 -6 9 7 20 9 24 5 5 -4 5 -1 1 6 -9 16
-11 15 -27 -5z"/>
<path d="M1016 341 c-3 -5 2 -15 12 -22 15 -12 16 -12 5 2 -7 9 -10 19 -6 22
3 4 4 7 0 7 -3 0 -8 -4 -11 -9z"/>
<path d="M248 158 c10 -13 10 -17 0 -21 -9 -4 -9 -6 -1 -6 20 -2 24 16 5 30
-15 13 -16 12 -4 -3z"/>
<path d="M340 70 c0 -5 5 -10 11 -10 5 0 7 5 4 10 -3 6 -8 10 -11 10 -2 0 -4
-4 -4 -10z"/>
<path d="M750 59 c0 -5 5 -7 10 -4 6 3 10 8 10 11 0 2 -4 4 -10 4 -5 0 -10 -5
-10 -11z"/>
</g>
</svg>
